<svg enable-background="new 0 0 438.5 438.5" viewBox="0 0 438.5 438.5" xmlns="http://www.w3.org/2000/svg"><title>person icon</title><g fill="#3f1552"><path d="m219.3 219.3c30.3 0 56.1-10.7 77.5-32.1s32.1-47.2 32.1-77.5-10.7-56.1-32.1-77.5c-21.4-21.5-47.3-32.2-77.5-32.2s-56.1 10.7-77.5 32.1-32.1 47.3-32.1 77.5c0 30.3 10.7 56.1 32.1 77.5 21.4 21.5 47.2 32.2 77.5 32.2z"/><path d="m419.3 335c-.7-9.6-2-20-4-31.1s-4.5-21.5-7.6-31c-3-9.5-7.1-18.8-12.3-27.8-5.1-9-11-16.7-17.7-23.1s-14.8-11.5-24.4-15.3-20.2-5.7-31.8-5.7c-1.7 0-5.7 2-12 6.1-7.1 4.6-14.2 9.2-21.3 13.7-7.9 5-18.2 9.6-30.8 13.7-12.7 4.1-25.4 6.1-38.1 6.1-12.8 0-25.5-2-38.1-6.1-12.7-4.1-22.9-8.7-30.8-13.7-7.1-4.5-14.2-9.1-21.3-13.7-6.3-4.1-10.3-6.1-12-6.1-11.6 0-22.2 1.9-31.8 5.7s-17.7 8.9-24.4 15.3-12.6 14.1-17.7 23.1-9.2 18.3-12.3 27.8c-3 9.5-5.6 19.8-7.6 31-2 11.1-3.3 21.5-4 31.1-.7 9.8-1 19.7-1 29.6 0 22.8 6.9 40.9 20.8 54.1s32.4 19.8 55.4 19.8h249.5c23 0 41.5-6.6 55.4-19.8s20.8-31.3 20.8-54.1c.1-10.1-.3-19.9-.9-29.6z"/></g></svg>