<svg enable-background="new 0 0 40 40" viewBox="0 0 40 40" xmlns="http://www.w3.org/2000/svg"><title>delivery icon</title><g fill="#3f1552"><path d="m28.5 27.6c-.4 2 .8 3.9 2.8 4.3s3.9-.8 4.3-2.8-.8-3.9-2.8-4.3c-1.9-.4-3.9.9-4.3 2.8zm2.2.5c.1-.7.9-1.3 1.7-1.1.7.1 1.3.9 1.1 1.7-.1.7-.9 1.3-1.7 1.1-.8-.1-1.3-.9-1.1-1.7zm-25.5-.5c-.4 2 .8 3.9 2.8 4.3s3.9-.8 4.3-2.8-.8-3.9-2.8-4.3c-1.9-.4-3.8.9-4.3 2.8zm2.2.5c.1-.7.9-1.3 1.7-1.1.7.1 1.3.9 1.1 1.7-.1.7-.9 1.3-1.7 1.1-.8-.1-1.3-.9-1.1-1.7zm-1.7-3.6h-4.2v.2l.9 2.9c.1.1.2.4.6.4h.9c0-.2.1-.4.1-.6.2-1.2.9-2.2 1.7-2.9z"/><path d="m30.1 23.9c.4-.2.9-.3 1.3-.4.1-.1.3-.1.4-.1h.3c.3 0 .7 0 1 .1 1.3.3 2.4 1 3.1 2.1.5.7.7 1.6.8 2.4h2.5c.3 0 .5-.2.5-.5v-2.8c0-.3-.2-.5-.5-.5h-.3v-5c0-.3-.1-.7-.2-.9l-2.3-5.6-.2-.2s-.3-.4-.9-.4h-5.5v9.8zm1.3-10.3c0-.2.2-.3.3-.3h3.7c.2 0 .3.1.4.2l1.8 4.5c0 .1-.1.2-.2.2h-3c-.2 0-.3-.1-.4-.2l-.5-1.3c-.1-.1-.3-.2-.4-.2h-1.4c-.2 0-.3-.2-.3-.3zm-19.4 10.9c.4.3.7.7 1 1.1.5.7.7 1.6.8 2.4h13.3c0-.2.1-.4.1-.6.3-1.2.9-2.2 1.8-2.9zm17-1.1h-29v-16.4h29z"/></g></svg>