<svg viewBox="0 0 377 68" xmlns="http://www.w3.org/2000/svg"><title>blinds 2go logo</title><path d="m8.4 20.7c2.8-2.7 5.6-3.9 9.7-3.9 9.3 0 17.2 7.8 17.2 17.9 0 10.3-8.7 17.9-18.5 17.9-8.9 0-16.8-7.5-16.8-18.4v-28.2l8.4-1zm0 13.9c0 5.5 4.3 10.2 10 10.2 4.8 0 9.1-4.7 9.1-10.2s-4.3-10.2-9.1-10.2c-5.7 0-10 4.7-10 10.2zm32.1 17.4v-46l8.4-1v46zm14.7-34.2 8.4-1v34l-8.4 1.2zm15 0 8-.8v4.7h.2c2.9-3.8 5.6-4.9 10.3-4.9 6.9 0 11.6 4.4 11.6 11.6v22.5l-8.4 1.1v-21.4c0-3.5-1.6-6.6-5.5-6.6-5.3 0-7.8 4.1-7.8 8.3v18.5l-8.4 1.2zm62.5 30c-3.5 3.5-5.8 4.7-10.5 4.7-9.6 0-16.6-8.6-16.6-17.9s7-17.9 16.6-17.9c3.4 0 6.9 1 10 3.5v-14.3l8.4-1v46.1l-8 1.2v-4.4zm-9.4-3c5.6 0 9.7-4.7 9.7-10.2s-4.1-10.2-9.7-10.2-9.7 4.7-9.7 10.2 4.1 10.2 9.7 10.2zm27.3-2.8c2.2 2.3 4.4 3.5 7.6 3.5 2.7 0 4.7-1.7 4.7-3.5 0-6.1-16.6-2.2-16.6-15 0-6.9 6.1-10.3 12.3-10.3 4.8 0 9.3 1.9 12.5 5.5l-5.5 4.9c-1.6-1.8-3.8-3.4-6.3-3.4-2.4 0-4.1 1-4.1 3.5 0 5.5 16.6 1.7 16.6 14.1 0 7.7-6.9 11.2-13.8 11.2-4.7 0-9.5-1.8-12.6-5.5z" fill="#470d53"/><path d="m176.5 51.5 12.9-15.8c3.4-4.2 9.7-10.8 9.7-15.9 0-3.8-2.5-6.9-7.4-6.9-4.7 0-7.2 3.4-7.2 7.3 0 3.3 2.6 6.6 6 6.8l-5.4 7.1c-3.2-1.2-9.4-4.8-9.4-14.6 0-7 5.1-14.5 16.8-14.5 8.6 0 15.4 6.3 15.4 15.2 0 9.5-9.2 16.5-14.8 23h15.7l-2.2 8.4z" fill="#afb6bd"/><path d="m220.2 41.1c-5.8-2.4-8-5.5-8-11.1 0-7.9 6.8-13.2 15.4-13.2 3.8 0 6.9.4 8.1.4 3.3 0 8-1 11.7-2.3l-1.6 7.1h-5.2c2.1 2.4 3.4 4.8 3.4 8.2 0 4.7-2.9 8.1-7.2 9.9 4.7 2.3 7.8 5.7 7.8 11.1 0 9.2-8.8 13.2-15.9 13.2-7.7 0-12.6-1.9-17.1-6.8l5.2-5.4c3.5 3.7 5.7 5.1 11 5.1 3.4 0 8.1-2.1 8.1-6.6 0-5.2-4.1-7.5-8.9-7.5-2.9 0-5.7 1-8.1 2.4zm7.9-4.1c3.8 0 7.4-2.9 7.4-7 0-4-3.6-6.9-7.4-6.9s-7.4 2.9-7.4 6.9c-.1 4 3.5 7 7.4 7zm39.3-20.2c10 0 18.7 7.8 18.7 17.9s-8.7 17.9-18.7 17.9-18.7-7.8-18.7-17.9 8.8-17.9 18.7-17.9zm0 28c5.7 0 10.7-4.4 10.7-10.2s-5-10.2-10.7-10.2-10.7 4.4-10.7 10.2 5 10.2 10.7 10.2zm18.9-28.2h-2.8v-1.5h7.3v1.5h-2.8v7.8h-1.7zm6.3-1.5h2.7l2.5 7.1h.1l2.5-7.1h2.7v9.2h-1.7v-7.7h-.1l-2.7 7.7h-1.4l-2.7-7.7h-.2v7.7h-1.7zm-229.3-4-8.4 1.1v-8.1l8.4-1.1v8.1z" fill="#470d53"/></svg>