<svg viewBox="0 0 377 68" xmlns="http://www.w3.org/2000/svg"><title>curtains 2go logo</title><path d="m178.1 17 8.2-.8v4.7h.2c3-3.9 5.8-5 10.7-5 7.2 0 12.1 4.5 12.1 11.9v23l-8.7 1.2v-21.8c0-3.6-1.7-6.7-5.6-6.7-5.5 0-8.1 4.1-8.1 8.5v18.9l-8.7 1.2z" fill="#470d53"/><path d="m245.7 52 13.4-16c3.5-4.3 10.1-11.1 10.1-16.2 0-3.8-2.6-7.1-7.8-7.1-4.8 0-7.5 3.4-7.5 7.4 0 3.4 2.7 6.7 6.2 7l-5.5 7.3c-3.3-1.3-9.7-4.9-9.7-15 0-7.2 5.3-14.8 17.4-14.8 9 0 16 6.4 16 15.4 0 9.6-9.5 16.9-15.3 23.5h16.2l-2.3 8.6z" fill="#afb6bd"/><path d="m291 41.4c-6-2.5-8.2-5.5-8.2-11.3 0-8.1 7.1-13.6 16-13.6 4 0 7.2.5 8.4.5 3.4 0 8.2-1.1 12.1-2.4l-1.7 7.4h-5.3c2.2 2.4 3.5 4.9 3.5 8.4 0 4.8-3 8.3-7.4 10.1 4.9 2.4 8.1 5.8 8.1 11.3 0 9.3-9.2 13.6-16.5 13.6-8 0-13-2-17.7-6.9l5.3-5.4c3.7 3.7 5.9 5.2 11.4 5.2 3.5 0 8.3-2.2 8.3-6.7 0-5.3-4.2-7.7-9.2-7.7-3 0-5.9 1.1-8.4 2.5zm8.2-4.1c4 0 7.8-3 7.8-7.2 0-4-3.8-7.2-7.8-7.2s-7.8 3-7.8 7.2c.1 4.2 3.9 7.2 7.8 7.2zm40.8-20.7c10.3 0 19.4 8 19.4 18.3s-9.1 18.3-19.4 18.3-19.4-8-19.4-18.3 9.1-18.3 19.4-18.3zm0 28.7c5.9 0 11.1-4.5 11.1-10.4s-5.3-10.4-11.1-10.4-11.1 4.5-11.1 10.4 5.2 10.4 11.1 10.4zm19.6-28.9h-2.9v-1.5h7.6v1.5h-2.9v8h-1.8zm6.6-1.4h2.8l2.5 7.3h.1l2.5-7.3h2.8v9.4h-1.8v-7.9h-.1l-2.8 7.9h-1.4l-2.8-7.9h-.1v7.9h-1.8zm-338.1 10.4c-2.4-1.4-4.9-2.7-7.6-2.7-6.6 0-11.6 4.3-11.6 10.7 0 6.2 5.6 10.7 10.3 10.7 3.6 0 5.7-.8 8.6-2.7l5 6.3c-3.4 3.4-8.8 4.4-13.4 4.4-9.2 0-19.4-7.1-19.4-19 0-10.7 9.2-18.5 19.7-18.5 5.3 0 9.2 1.6 13.2 4.1zm76.6-16.8 9-3.9v10.1h8.2v8.6h-8.2v15c0 3.4 1.5 5.6 6.7 5.6 1 0 2.1-.1 3.1-.2l-2.2 8c-.8.2-2.4.3-3.5.3-7.5 0-13-3.9-13-11.8v-16.9h-6.1l2.5-8.7h3.5zm27.1 7.1c3.4-.6 6.9-1 10.3-1 6.4 0 13.5 2.8 13.5 9.9v26.4l-8.2.8v-3c-2.4 2.1-5.6 3.3-9 3.3-7.6 0-13.6-4.3-13.6-12.4 0-6.4 5.4-12.1 12.1-12.1 3.9 0 6.4.6 9.9 2.4.1-.8.2-1.5.2-2.4 0-4.8-3.5-5.7-7.7-5.7-3.5 0-6.9.8-10.2 2.1zm8.7 29.2c3.2 0 6.5-1.9 6.5-5.1 0-3.1-3.4-5.1-6.5-5.1s-6.5 2-6.5 5.1c-.1 3.2 3.3 5.1 6.5 5.1zm79.1-3.3c2.4 2.4 4.6 3.7 8.2 3.7 2.9 0 5-1.8 5-3.5 0-6.3-17.7-2.3-17.7-15.7 0-7.3 6.5-10.8 13.1-10.8 5.1 0 9.9 2.1 13.2 5.8l-5.9 5.2c-1.7-1.9-4-3.5-6.8-3.5-2.6 0-4.3 1-4.3 3.6 0 5.8 17.7 1.8 17.7 14.8 0 8.1-7.4 11.7-14.7 11.7-5 0-10.2-1.9-13.5-5.7zm-57-24.6 8.7-1v34.8l-8.7 1.2zm8.3-6.8-8.7 1.1v-8.1l8.6-1.2zm-87.3 11.2h-.2v-6.4l-8.4.8v35.8l9-1.2v-16.3c0-6.2 3.6-10.6 10.4-10.6l2.5-8.8c-6.1.1-10.2 1.3-13.3 6.7zm-23.4 25.6h.2v4.4l8.4-1.1v-34.5l-9 1v19.1c0 4.4-2.6 8.6-8.2 8.6-4 0-5.8-3.1-5.8-6.9v-21.8l-9 1.1v23.2c0 7.5 5 12.1 12.3 12.1 5.1 0 8.1-1.2 11.1-5.2z" fill="#470d53"/></svg>