<svg enable-background="new 0 0 444.8 444.8" viewBox="0 0 444.8 444.8" xmlns="http://www.w3.org/2000/svg"><title>left arrow icon</title><path d="m22.8 248.1 185.9 185.9c7.2 7.2 15.9 10.8 26 10.8 9.9 0 18.5-3.6 25.7-10.8l21.4-21.4c7.2-6.9 10.9-15.4 10.9-25.7s-3.6-18.8-10.9-25.7l-83.7-83.9h201c9.9 0 17.9-3.6 24.1-10.7s9.3-15.8 9.3-25.8v-36.5c0-10.1-3.1-18.7-9.3-25.8s-14.2-10.7-24.1-10.7h-201l83.7-83.7c7.2-7.2 10.9-15.9 10.9-26s-3.6-18.8-10.9-26l-21.4-21.4c-7.4-7.2-16-10.7-25.7-10.7-9.9 0-18.6 3.5-26 10.6l-185.9 185.8c-7 7-10.6 15.7-10.6 26 .1 10.5 3.6 19 10.6 25.7z" fill="#fff"/></svg>