<svg enable-background="new 0 0 402 402" viewBox="0 0 402 402" xmlns="http://www.w3.org/2000/svg"><title>lock icon</title><path d="m357.5 190.7c-5.3-5.3-11.8-8-19.4-8h-9.1v-54.8c0-35-12.6-65.1-37.7-90.2-25.2-25.1-55.3-37.7-90.3-37.7s-65.1 12.6-90.2 37.7-37.7 55.2-37.7 90.2v54.8h-9.1c-7.6 0-14.1 2.7-19.4 8s-8 11.8-8 19.4v164.5c0 7.6 2.7 14.1 8 19.4s11.8 8 19.4 8h274c7.6 0 14.1-2.7 19.4-8s8-11.8 8-19.4v-164.5c.1-7.6-2.6-14-7.9-19.4zm-83.4-8h-146.2v-54.8c0-20.2 7.1-37.4 21.4-51.7 14.3-14.2 31.5-21.4 51.7-21.4s37.4 7.1 51.7 21.4 21.4 31.5 21.4 51.7z" fill="#c1c1c1"/></svg>