<svg enable-background="new 0 0 444.8 444.8" viewBox="0 0 444.8 444.8" xmlns="http://www.w3.org/2000/svg"><title>right arrow icon</title><path d="m422 196.7-185.9-185.9c-7.2-7.2-15.9-10.8-26-10.8-9.9 0-18.5 3.6-25.7 10.8l-21.4 21.5c-7.2 6.9-10.9 15.4-10.9 25.7s3.6 18.8 10.9 25.7l83.7 83.9h-201c-9.9 0-17.9 3.6-24.1 10.7s-9.3 15.8-9.3 25.8v36.5c0 10.1 3.1 18.7 9.3 25.8s14.2 10.7 24.1 10.7h201l-83.7 83.8c-7.2 7.2-10.9 15.9-10.9 26s3.6 18.8 10.9 26l21.4 21.4c7.4 7 16 10.6 25.7 10.6 9.9 0 18.6-3.5 26-10.6l185.9-185.9c7-7 10.6-15.7 10.6-26-.1-10.5-3.6-19-10.6-25.7z" fill="#fff"/></svg>