<svg xmlns="http://www.w3.org/2000/svg" viewBox="0 0 72 30"><title>sectigo icon</title><path d="M68,10.23a1.9,1.9,0,0,1,.26-1A1.81,1.81,0,0,1,69,8.52a1.92,1.92,0,0,1,1-.27,2,2,0,0,1,1,.27,1.91,1.91,0,0,1,.72.72,2,2,0,0,1,.26,1,2,2,0,0,1-.25,1,1.87,1.87,0,0,1-.72.73,1.91,1.91,0,0,1-1,.28A2,2,0,0,1,69,12a2,2,0,0,1-1-1.72Zm.32,0a1.57,1.57,0,0,0,.23.85,1.51,1.51,0,0,0,.6.6,1.65,1.65,0,0,0,.84.22,1.59,1.59,0,0,0,.83-.22,1.62,1.62,0,0,0,.61-.61,1.65,1.65,0,0,0,.22-.84,1.75,1.75,0,0,0-.22-.84,1.67,1.67,0,0,0-.61-.6A1.59,1.59,0,0,0,70,8.57a1.74,1.74,0,0,0-.84.21,1.53,1.53,0,0,0-.6.61A1.56,1.56,0,0,0,68.35,10.23Zm1.25.2v.9h-.39V9.08H70a1.09,1.09,0,0,1,.67.17.59.59,0,0,1,.23.51.53.53,0,0,1-.36.49.53.53,0,0,1,.35.54V11a.92.92,0,0,0,0,.33v0h-.4a.94.94,0,0,1,0-.34c0-.17,0-.26,0-.29s-.15-.26-.37-.27Zm0-.34H70a.58.58,0,0,0,.33-.09.28.28,0,0,0,.12-.23.31.31,0,0,0-.11-.27A.63.63,0,0,0,70,9.42h-.38v.67Z" style="fill:#091b2a"></path><path d="M.53,14.63a3.18,3.18,0,0,0,.7,2.56,3.29,3.29,0,0,0,2.53.9H5a.44.44,0,0,0,.4-.44l.12-1.43a.42.42,0,0,0-.43-.47H4.39a1.2,1.2,0,0,1-.92-.29,1.23,1.23,0,0,1-.21-1l.23-2.62a1.45,1.45,0,0,1,.37-1,1.43,1.43,0,0,1,1-.29H8.45A1.32,1.32,0,0,0,9.54,10l.74-1.11A.4.4,0,0,0,10,8.25H4.61a3.84,3.84,0,0,0-2.68.9A3.74,3.74,0,0,0,.79,11.71h0L.53,14.63" style="fill:#00af73"></path><path d="M.32,22H5.74a3.85,3.85,0,0,0,2.69-.9,3.74,3.74,0,0,0,1.14-2.56h0l.26-2.92h0a3.18,3.18,0,0,0-.7-2.56,3.29,3.29,0,0,0-2.53-.9H5.38a.43.43,0,0,0-.4.44L4.86,14a.42.42,0,0,0,.43.47H6a1.25,1.25,0,0,1,.93.29,1.31,1.31,0,0,1,.21,1l-.23,2.61a1.43,1.43,0,0,1-.38,1,1.34,1.34,0,0,1-1,.29H1.84a1.32,1.32,0,0,0-1.09.6L0,21.35" style="fill:#00af73"></path><path d="M18.41,22h-7c-.3,0-.44-.15-.41-.45L12.13,8.7a.44.44,0,0,1,.49-.45h7q.43,0,.39.45l-.13,1.46a.43.43,0,0,1-.46.45H14.94c-.17,0-.27.07-.28.23l-.24,2.78c0,.16.06.24.23.24h3.66c.3,0,.44.15.41.45l-.13,1.45a.43.43,0,0,1-.48.45H14.45a.25.25,0,0,0-.28.24l-.26,3c0,.16.07.23.24.23h4.47c.28,0,.41.16.39.45l-.13,1.46a.43.43,0,0,1-.47.44" style="fill:#091b2a"></path><path d="M26,22H23.62a3.31,3.31,0,0,1-2.53-.9,3.21,3.21,0,0,1-.69-2.59L21,11.74a3.76,3.76,0,0,1,1.15-2.59,3.84,3.84,0,0,1,2.68-.9h2.33a3.28,3.28,0,0,1,2.52.91,3.15,3.15,0,0,1,.7,2.57l-.08,1a.46.46,0,0,1-.51.47H28c-.3,0-.44-.16-.41-.47l.08-.88a1.27,1.27,0,0,0-.2-1,1.27,1.27,0,0,0-.95-.29H25a1.45,1.45,0,0,0-1,.29,1.5,1.5,0,0,0-.37,1l-.57,6.52a1.23,1.23,0,0,0,.21,1,1.2,1.2,0,0,0,.92.29h1.46a1.46,1.46,0,0,0,1-.29,1.45,1.45,0,0,0,.37-1l.08-.88a.45.45,0,0,1,.49-.47h1.79c.32,0,.46.16.43.47l-.08,1a3.76,3.76,0,0,1-1.16,2.57A3.81,3.81,0,0,1,26,22" style="fill:#091b2a"></path><path d="M35.89,22h-1.8c-.31,0-.46-.15-.43-.45l.94-10.71c0-.16-.06-.24-.22-.24H32c-.3,0-.44-.15-.41-.45l.12-1.45a.44.44,0,0,1,.49-.45h8.08c.3,0,.44.14.41.45l-.13,1.45a.43.43,0,0,1-.48.45H37.59a.25.25,0,0,0-.28.24l-.93,10.71a.45.45,0,0,1-.49.45" style="fill:#091b2a"></path><path d="M44.74,8.7,43.62,21.55a.44.44,0,0,1-.49.45H41.31c-.3,0-.44-.15-.41-.45L42,8.7a.43.43,0,0,1,.48-.45h1.82c.3,0,.44.15.41.45" style="fill:#091b2a"></path><path d="M60.43,19.65H62a1.46,1.46,0,0,0,1-.29,1.51,1.51,0,0,0,.38-1l.57-6.52a1.23,1.23,0,0,0-.21-1,1.21,1.21,0,0,0-.95-.29H61.22a1.35,1.35,0,0,0-1,.29,1.43,1.43,0,0,0-.37,1l-.57,6.52a1.34,1.34,0,0,0,.19,1,1.26,1.26,0,0,0,.94.29M62.2,22H59.8a3.31,3.31,0,0,1-2.53-.9,3.21,3.21,0,0,1-.69-2.59l.59-6.77a3.76,3.76,0,0,1,1.15-2.59A3.84,3.84,0,0,1,61,8.25h2.4a3.31,3.31,0,0,1,2.53.9,3.21,3.21,0,0,1,.69,2.59L66,18.51a3.76,3.76,0,0,1-1.15,2.59,3.84,3.84,0,0,1-2.68.9" style="fill:#091b2a"></path><path d="M53.11,12.85h1.82a.45.45,0,0,0,.49-.47l.06-.64a3.25,3.25,0,0,0-.7-2.58,3.22,3.22,0,0,0-2.5-.91H50a3.84,3.84,0,0,0-2.68.9,3.76,3.76,0,0,0-1.15,2.59l-.59,6.77a3.21,3.21,0,0,0,.69,2.59,3.31,3.31,0,0,0,2.53.9h2.27a3.53,3.53,0,0,0,3.81-3.49L55.2,15c0-.33-.12-.5-.45-.5H50.52a.47.47,0,0,0-.43.65l.55,1.11a1.08,1.08,0,0,0,1,.6h.47c.15,0,.22.07.21.23l-.12,1.35a1.48,1.48,0,0,1-.36,1,1.36,1.36,0,0,1-1,.29H49.44a1.21,1.21,0,0,1-.93-.29,1.27,1.27,0,0,1-.2-1l.57-6.52a1.43,1.43,0,0,1,.37-1,1.43,1.43,0,0,1,1-.29h1.39a1.23,1.23,0,0,1,.94.29,1.29,1.29,0,0,1,.19,1l0,.51c0,.31.1.47.4.47" style="fill:#091b2a"></path></svg>