<svg id="Layer_1" data-name="Layer 1" xmlns="http://www.w3.org/2000/svg" viewBox="0 0 100 50"><title>reviews logo</title><defs><style>.cls-1{fill:#fff;}</style></defs><g id="_3raPkj" data-name="3raPkj"><path d="M20.64,25a6.3,6.3,0,0,1-6.34,6.35,6.3,6.3,0,0,1-6.43-6.42A6.39,6.39,0,0,1,20.64,25Z"/><path d="M68.3,20.25c.14-.78.91-.7,1.26,0a4,4,0,0,1,.19.48c.78,2.24,1.55,4.47,2.34,6.71.08.24.2.47.34.79l2.16-6.47c.18-.52.36-1,.53-1.56a.6.6,0,0,1,.52-.51.65.65,0,0,1,.7.41,5.07,5.07,0,0,1,.24.65q1.07,3.21,2.11,6.41c.11.33.24.65.4,1.08.14-.38.27-.65.37-.94l2.37-6.79a3.94,3.94,0,0,1,.18-.48.56.56,0,0,1,.65-.33.61.61,0,0,1,.47.64,3.93,3.93,0,0,1-.22.66c-1,2.8-2,5.6-3,8.39-.13.38-.27.78-.74.89s-.68-.4-.82-.78c-.31-.84-.6-1.69-.89-2.54-.55-1.64-1.1-3.28-1.68-5-.11.25-.2.42-.26.59l-2.31,6.81c-.13.38-.21.8-.7.95a.82.82,0,0,1-.82-.63l-.81-2.19c-.84-2.31-1.67-4.62-2.51-6.92A1.82,1.82,0,0,1,68.3,20.25Z"/><path d="M27.8,26.16H24.92c0,.23-.06.44-.06.66,0,.87,0,1.74,0,2.61,0,.65-.11.71-.88.71a.81.81,0,0,1-.34-.75V20.26a1,1,0,0,1,1-.51c1.45,0,2.91,0,4.36.14a3,3,0,0,1,.84,5.86,6,6,0,0,1-.64.18l2.1,2.72a7,7,0,0,1,.52.7.51.51,0,0,1-.12.7.54.54,0,0,1-.72,0,5.5,5.5,0,0,1-.76-.84c-.59-.75-1.16-1.52-1.74-2.28C28.26,26.69,28,26.43,27.8,26.16Zm-2.91-1.1c1.17,0,2.3,0,3.43,0a3.15,3.15,0,0,0,.85-.18A1.87,1.87,0,0,0,30.65,23a1.73,1.73,0,0,0-1.45-1.88,3.94,3.94,0,0,0-1-.16c-.91,0-1.81,0-2.72,0a3.7,3.7,0,0,0-.57.07Z"/><path d="M66.66,20.73a1.88,1.88,0,0,1-1,.17H60.44c0,1.16,0,2.27,0,3.45h5.27a.55.55,0,0,1,.33.82c-.13.28-.4.3-.67.3H60.46a12.78,12.78,0,0,0,0,1.74c0,.58,0,1.16,0,1.78a18,18,0,0,0,2,.08c.67,0,1.34,0,2,0h2.07c.24.05.41,0,.41.47,0,.26,0,.2,0,.28-.1.44-.62.32-.94.32H59.81c-.42,0-.57-.18-.62-.58a.91.91,0,0,1,0-.17V20.26a.86.86,0,0,1,.89-.52h5.86C66.61,19.75,66.83,20,66.66,20.73Z"/><path d="M35.42,20.91c0,1.22-.05,2.31,0,3.47h5.42c.54.42.32,1.08-.4,1.09-1.31,0-2.63,0-3.94,0h-.94a10,10,0,0,0-.05,3.6h6a.59.59,0,0,1,.21.94,1.74,1.74,0,0,1-.46.13q-3.33,0-6.66,0c-.09,0-.32,0-.32-.22V20c.07-.32.5-.26.76-.26,2,0,4,0,6,0a.94.94,0,0,1,.34,0,.58.58,0,0,1,.47.56.55.55,0,0,1-.48.54,3.12,3.12,0,0,1-.61,0H35.42Z"/><path d="M88.32,19.7a4.76,4.76,0,0,1,2.76.71,2.17,2.17,0,0,1,.42.31.54.54,0,0,1,.09.71.55.55,0,0,1-.7.21,3.36,3.36,0,0,1-.61-.34,4.14,4.14,0,0,0-2.6-.53,2,2,0,0,0-1.39.64,1.42,1.42,0,0,0,.31,2.24,6.94,6.94,0,0,0,1.45.57c.61.2,1.24.32,1.85.52a5,5,0,0,1,1.1.52,2.64,2.64,0,0,1-.11,4.4,4.32,4.32,0,0,1-2.23.65,6.27,6.27,0,0,1-3.76-1.18c-.49-.36-.61-.69-.41-1s.56-.34,1.06,0a4.74,4.74,0,0,0,2.82,1A4,4,0,0,0,90,28.87,1.52,1.52,0,0,0,89.88,26c-.58-.24-1.22-.37-1.83-.56a15.61,15.61,0,0,1-1.89-.65,2.33,2.33,0,0,1-1.43-2.27,2.53,2.53,0,0,1,1.42-2.4A3.44,3.44,0,0,1,88.32,19.7Z"/><path d="M48.17,28.63l3.14-7.44a11,11,0,0,1,.51-1.1c.2-.37.5-.47.79-.32a.58.58,0,0,1,.28.74,5.6,5.6,0,0,1-.33.8L49,29.57a1,1,0,0,1-.81.71c-.53,0-.72-.41-.9-.82l-1.83-4.21c-.57-1.29-1.14-2.59-1.7-3.88a6,6,0,0,1-.34-1,.51.51,0,0,1,.33-.63.55.55,0,0,1,.7.2,2.69,2.69,0,0,1,.28.53c1.1,2.64,2.21,5.27,3.31,7.9A1.46,1.46,0,0,0,48.17,28.63Z"/><path d="M55.13,20.51c.19-1.11,1.12-.79,1.13,0,0,2.23,0,4.46,0,6.69,0,.76,0,1.51,0,2.26s-1,1.06-1.1,0C55.15,26.21,55.13,23.85,55.13,20.51Z"/><path class="cls-1" d="M14.26,27.26l-3,2.31c.23-1.41.81-2.56,1.07-3.85-.92-.71-1.87-1.55-2.9-2.36.47,0,.81,0,1.16,0s.82,0,1.22,0H13l1.27-3.65c.55,1.21.82,2.4,1.3,3.62,1.11.07,2.32.05,3.57.1a11.94,11.94,0,0,1-1.44,1.17c-.46.39-.94.75-1.45,1.15l1.09,3.62A25.68,25.68,0,0,1,14.26,27.26Z"/></g></svg>