<svg id="Layer_1" data-name="Layer 1" xmlns="http://www.w3.org/2000/svg" xmlns:xlink="http://www.w3.org/1999/xlink" viewBox="0 0 100 50"><title>trustpilot icon</title><defs><style>.cls-1{fill:none;}.cls-2{clip-path:url(#clip-path);}.cls-3{clip-path:url(#clip-path-2);}.cls-4{fill:#221f1d;}.cls-5{fill:#14aa6e;}.cls-6{fill:#105227;}</style><clipPath id="clip-path"><rect class="cls-1" x="4.75" y="13.86" width="90.5" height="22.29"/></clipPath><clipPath id="clip-path-2"><rect class="cls-1" x="4.75" y="13.92" width="90.49" height="22.22"/></clipPath></defs><g class="cls-2"><g class="cls-3"><path class="cls-4" d="M28.53,21.79H37.7v1.72H34.1v9.6h-2v-9.6H28.53V21.79m8.77,3.13H39V26.5h0a1.69,1.69,0,0,1,.31-.65,3.33,3.33,0,0,1,.55-.58,3.23,3.23,0,0,1,.72-.42,2.32,2.32,0,0,1,.81-.15h.44l.24,0v1.75l-.38-.06-.39,0a2.12,2.12,0,0,0-.87.18,1.92,1.92,0,0,0-.7.54,2.74,2.74,0,0,0-.48.88,4,4,0,0,0-.17,1.2v3.9H37.3Zm13.1,8.19H48.62V32h0a2.42,2.42,0,0,1-1,1,2.67,2.67,0,0,1-1.34.38,3,3,0,0,1-2.34-.8,3.53,3.53,0,0,1-.72-2.42v-5.2H45v5a2.28,2.28,0,0,0,.41,1.53,1.53,1.53,0,0,0,1.16.44,2.21,2.21,0,0,0,1-.18,1.71,1.71,0,0,0,.62-.46,1.8,1.8,0,0,0,.34-.71,3.57,3.57,0,0,0,.1-.89V24.92H50.4Zm3.08-2.63a1.35,1.35,0,0,0,.6,1.11,2.37,2.37,0,0,0,1.25.32,4.24,4.24,0,0,0,.58,0,2.87,2.87,0,0,0,.61-.15,1.06,1.06,0,0,0,.47-.33.78.78,0,0,0,.16-.56.79.79,0,0,0-.25-.57,1.73,1.73,0,0,0-.61-.36,6.86,6.86,0,0,0-.85-.23l-1-.2c-.33-.08-.66-.17-1-.27a3.33,3.33,0,0,1-.84-.43,2,2,0,0,1-.6-.69,2.32,2.32,0,0,1-.22-1,1.88,1.88,0,0,1,.33-1.12,2.51,2.51,0,0,1,.82-.73,3.55,3.55,0,0,1,1.11-.38,6.07,6.07,0,0,1,1.17-.11,5.34,5.34,0,0,1,1.21.13,3.39,3.39,0,0,1,1.05.44,2.49,2.49,0,0,1,.77.78,2.62,2.62,0,0,1,.39,1.17H56.8a1.12,1.12,0,0,0-.59-.88,2.59,2.59,0,0,0-1.07-.22l-.45,0a2.34,2.34,0,0,0-.49.12,1,1,0,0,0-.39.26.57.57,0,0,0-.16.43.71.71,0,0,0,.23.54,1.72,1.72,0,0,0,.6.34,5.47,5.47,0,0,0,.85.23l1,.21a8.21,8.21,0,0,1,1,.27,3,3,0,0,1,.85.43,2,2,0,0,1,.6.68,2.07,2.07,0,0,1,.23,1,2.23,2.23,0,0,1-.33,1.24,2.53,2.53,0,0,1-.87.82,3.5,3.5,0,0,1-1.18.46,5.66,5.66,0,0,1-1.28.15,5.46,5.46,0,0,1-1.44-.18,3.16,3.16,0,0,1-1.14-.53,2.62,2.62,0,0,1-.76-.89,2.86,2.86,0,0,1-.29-1.26Zm6-5.56H60.8V22.46h1.81v2.46h1.63v1.34H62.61v4.38c0,.19,0,.36,0,.49a.85.85,0,0,0,.11.35.56.56,0,0,0,.26.22,1.52,1.52,0,0,0,.48.07h.38a2.5,2.5,0,0,0,.38-.06v1.4l-.59.06a5.49,5.49,0,0,1-.58,0,4,4,0,0,1-1.15-.13,1.47,1.47,0,0,1-.68-.4A1.3,1.3,0,0,1,60.9,32a5.61,5.61,0,0,1-.1-.9V26.26H59.44Zm6.07,0h1.71V26h0a2.27,2.27,0,0,1,1.07-1,3.58,3.58,0,0,1,1.47-.3,3.89,3.89,0,0,1,1.69.34,3.35,3.35,0,0,1,1.2.93,4.25,4.25,0,0,1,.71,1.39,5.82,5.82,0,0,1,.24,1.7,5.72,5.72,0,0,1-.22,1.6A4.23,4.23,0,0,1,72.76,32a3.18,3.18,0,0,1-2.67,1.31,4.23,4.23,0,0,1-.79-.08,3.17,3.17,0,0,1-.76-.22,3.32,3.32,0,0,1-.68-.41,2.36,2.36,0,0,1-.51-.58h0v4.09H65.51ZM71.82,29A4.18,4.18,0,0,0,71.68,28a3.06,3.06,0,0,0-.43-.93,2.2,2.2,0,0,0-.71-.65,1.92,1.92,0,0,0-1-.25,2,2,0,0,0-1.72.79A3.56,3.56,0,0,0,67.25,29a4.16,4.16,0,0,0,.15,1.15,2.37,2.37,0,0,0,.46.91,2.21,2.21,0,0,0,.72.61,2,2,0,0,0,1,.22,2.15,2.15,0,0,0,1-.25,2.21,2.21,0,0,0,.7-.66,2.63,2.63,0,0,0,.4-.92A4.72,4.72,0,0,0,71.82,29ZM75,21.79h1.8v1.72H75Zm0,3.13h1.8v8.19H75Zm3.42-3.13h1.81V33.11H78.43Zm7.34,11.55A4.4,4.4,0,0,1,84,33a3.66,3.66,0,0,1-2.11-2.26A5.12,5.12,0,0,1,81.63,29a5.06,5.06,0,0,1,.28-1.73,3.65,3.65,0,0,1,.81-1.36A3.78,3.78,0,0,1,84,25a4.95,4.95,0,0,1,3.5,0,3.78,3.78,0,0,1,1.3.9,3.65,3.65,0,0,1,.81,1.36A5.06,5.06,0,0,1,89.91,29a5.12,5.12,0,0,1-.28,1.74A3.66,3.66,0,0,1,87.52,33,4.37,4.37,0,0,1,85.77,33.34Zm0-1.43a2.2,2.2,0,0,0,1-.25,2.34,2.34,0,0,0,.73-.67,2.92,2.92,0,0,0,.42-.93,4.08,4.08,0,0,0,.13-1A4.19,4.19,0,0,0,88,28a2.82,2.82,0,0,0-.42-.93,2.17,2.17,0,0,0-.73-.65,2.25,2.25,0,0,0-2.1,0A2.17,2.17,0,0,0,84,27a2.82,2.82,0,0,0-.42.93A4.19,4.19,0,0,0,83.44,29a4.08,4.08,0,0,0,.13,1A2.92,2.92,0,0,0,84,31a2.34,2.34,0,0,0,.73.67A2.2,2.2,0,0,0,85.77,31.91Zm4.66-7H91.8V22.46h1.8v2.46h1.64v1.34H93.6v4.38a3.38,3.38,0,0,0,0,.49.72.72,0,0,0,.11.35.52.52,0,0,0,.26.22,1.48,1.48,0,0,0,.48.07h.38l.38-.06v1.4l-.59.06a5.68,5.68,0,0,1-.59,0,4,4,0,0,1-1.15-.13,1.52,1.52,0,0,1-.68-.4A1.38,1.38,0,0,1,91.9,32a4.66,4.66,0,0,1-.1-.9V26.26H90.43Z"/><polyline class="cls-5" points="26.42 21.79 18.14 21.79 15.59 13.92 13.03 21.79 4.75 21.79 11.45 26.66 8.89 34.53 15.59 29.67 22.28 34.53 19.73 26.66 26.42 21.79"/></g><polyline class="cls-6" points="20.3 28.44 19.73 26.66 15.59 29.67 20.3 28.44"/></g></svg>