<svg id="Layer_1" data-name="Layer 1" xmlns="http://www.w3.org/2000/svg" viewBox="0 0 100 50"><title>reviews logo</title><defs><style>.cls-1,.cls-3{font-size:13.13px;font-family:Avenir-Black, Avenir;font-weight:800;}.cls-1,.cls-4{letter-spacing:-0.02em;}.cls-2,.cls-3{letter-spacing:-0.04em;}.cls-3{fill:#fff;}</style></defs><g id="lUleVW"><path d="M21.14,32.05l-5.66,5.66a11.12,11.12,0,0,1-1.06.81c-1-.4-1.15-.65-1.16-1.68,0-1.23,0-2.46,0-3.69,0-.31,0-.63-.06-1l-1-.08c-.45,0-.91,0-1.36,0a2.15,2.15,0,0,1-2.08-2.25c0-.81,0-1.62,0-2.43,0-2.73,0-5.45,0-8.17a4.64,4.64,0,0,1,.17-1.24,1.94,1.94,0,0,1,1.89-1.41c.16,0,.32,0,.49,0q20,0,40.06,0a4.18,4.18,0,0,1,1.67.36,1.81,1.81,0,0,1,1.1,1.79c0,3.73,0,7.46,0,11.18A2,2,0,0,1,52.25,32,9.91,9.91,0,0,1,50.8,32H21.14Z"/><path d="M19.27,23.77c.12-.9.44-1.24,1.1-1.25s.94.29,1.12,1.25Z"/><path d="M37.93,23.8H35.69c0-.75.25-1.16.84-1.27S37.62,22.73,37.93,23.8Z"/></g><text class="cls-1" transform="translate(52.26 27.89)"><tspan xml:space="preserve"> cent</tspan><tspan class="cls-2" x="29.32" y="0">r</tspan><tspan x="34.17" y="0">e</tspan></text><text class="cls-3" transform="translate(11.04 27.79)">r<tspan class="cls-4" x="4.85" y="0">eview</tspan></text></svg>